<?xml version="1.0" standalone="no"?>
<svg version="1.0" xmlns="http://www.w3.org/2000/svg"
 viewBox="0 0 512.000000 512.000000"
 preserveAspectRatio="xMidYMid meet">

<g transform="translate(0.000000,512.000000) scale(0.100000,-0.100000)"
fill="#000000" stroke="none">
<path d="M590 4784 c-37 -25 -208 -193 -241 -238 -51 -68 -51 -68 188 -308
l217 -217 -73 -76 c-68 -70 -73 -78 -67 -108 13 -67 12 -67 372 -67 311 0 325
1 344 20 19 19 20 33 20 344 0 360 0 359 -67 372 -30 6 -38 1 -108 -67 l-76
-73 -217 217 c-231 230 -239 236 -292 201z m255 -394 c202 -200 214 -210 250
-210 29 0 46 7 67 27 l28 27 0 -152 0 -152 -152 0 -152 0 26 28 c33 36 40 57
27 90 -6 15 -103 120 -217 234 l-206 208 54 55 c30 30 56 55 59 55 3 0 100
-94 216 -210z"/>
<path d="M4238 4583 l-217 -217 -76 73 c-70 68 -78 73 -108 67 -67 -13 -67
-12 -67 -372 0 -311 1 -325 20 -344 19 -19 33 -20 344 -20 360 0 359 0 372 67
6 30 1 38 -67 108 l-73 76 217 217 c239 240 239 240 188 308 -33 45 -204 213
-241 238 -53 35 -61 29 -292 -201z m312 -38 l54 -55 -206 -208 c-114 -114
-211 -219 -217 -234 -13 -33 -6 -54 27 -90 l26 -28 -152 0 -152 0 0 152 0 152
28 -26 c38 -35 59 -40 96 -23 17 8 121 105 231 215 110 110 202 200 205 200 3
0 30 -25 60 -55z"/>
<path d="M2395 4694 c-16 -2 -73 -9 -125 -15 -261 -30 -713 -192 -740 -265
-20 -51 14 -105 66 -106 16 0 65 17 109 37 181 84 352 137 550 172 139 24 471
24 610 0 198 -34 400 -99 592 -190 81 -38 137 -14 137 59 0 44 -11 54 -109
102 -172 84 -403 157 -601 187 -95 15 -426 28 -489 19z"/>
<path d="M2350 3915 c-65 -30 -97 -74 -109 -153 l-6 -45 -66 -23 c-137 -46
-294 -136 -397 -229 l-53 -48 -40 18 c-75 34 -155 18 -210 -42 -43 -47 -180
-298 -186 -341 -8 -58 12 -106 64 -152 l46 -40 -17 -104 c-20 -133 -20 -259 0
-393 16 -103 16 -106 -2 -119 -70 -49 -100 -108 -91 -176 6 -43 143 -294 186
-341 14 -16 38 -35 53 -43 37 -19 120 -18 162 3 l35 16 43 -39 c103 -95 269
-192 407 -238 l66 -23 6 -45 c13 -84 55 -137 128 -159 22 -7 104 -9 212 -7
172 3 176 4 217 30 48 32 71 72 81 136 l6 45 66 23 c137 46 294 136 397 229
l53 48 40 -18 c75 -34 155 -18 210 42 43 47 180 298 186 341 8 60 -12 107 -66
153 l-47 41 13 61 c24 110 28 292 8 421 l-17 117 46 40 c50 45 72 99 62 157
-6 40 -146 293 -185 335 -54 60 -136 76 -211 42 l-39 -18 -53 48 c-103 94
-257 182 -397 229 l-66 23 -6 45 c-10 64 -33 104 -81 136 -41 27 -43 27 -227
30 -150 2 -193 -1 -221 -13z m371 -195 c10 -89 50 -133 149 -165 134 -44 273
-123 381 -216 97 -84 139 -95 231 -62 26 9 49 15 51 12 10 -11 147 -252 147
-258 -1 -3 -18 -18 -39 -32 -70 -49 -84 -112 -56 -264 18 -102 18 -248 0 -350
-28 -152 -14 -215 56 -264 21 -14 38 -29 39 -32 0 -6 -137 -247 -147 -258 -2
-3 -26 3 -54 13 -67 25 -128 17 -175 -20 -187 -149 -299 -216 -434 -259 -99
-32 -138 -75 -149 -165 l-6 -45 -155 0 -155 0 -6 45 c-10 87 -50 133 -143 164
-151 51 -281 125 -392 222 -89 78 -135 90 -226 57 -26 -9 -49 -15 -51 -12 -10
11 -147 252 -147 258 1 3 19 19 41 34 70 48 82 108 54 267 -19 108 -19 234 0
333 29 154 15 227 -56 275 -19 13 -34 29 -34 35 0 7 33 69 73 139 l73 127 42
-19 c46 -21 102 -25 141 -11 13 6 54 35 90 65 121 103 227 164 376 216 36 12
77 31 93 42 35 25 67 87 67 131 0 18 3 37 7 41 4 3 75 5 157 4 l151 -3 6 -45z"/>
<path d="M2431 3309 c-292 -52 -527 -269 -607 -560 -25 -89 -25 -290 -1 -379
72 -264 285 -476 547 -546 89 -25 291 -25 380 0 212 57 394 206 490 401 59
120 74 189 74 335 0 146 -15 215 -74 335 -96 194 -277 344 -485 400 -73 20
-250 28 -324 14z m273 -169 c113 -29 190 -73 277 -160 238 -236 238 -600 0
-840 -237 -239 -604 -240 -841 -1 -87 87 -131 164 -160 277 -36 141 -18 294
52 427 42 81 164 203 245 245 133 70 286 88 427 52z"/>
<path d="M2650 2655 l-194 -194 -92 89 c-76 75 -97 90 -123 90 -43 0 -81 -38
-81 -82 0 -28 16 -49 128 -160 115 -115 131 -128 163 -128 32 0 53 18 272 238
254 255 259 262 216 316 -15 20 -29 26 -57 26 -35 0 -49 -12 -232 -195z"/>
<path d="M703 3590 c-44 -18 -157 -280 -214 -494 -49 -188 -63 -308 -63 -536
0 -228 14 -348 63 -536 59 -224 170 -476 217 -494 51 -20 105 14 106 67 1 15
-9 48 -22 72 -77 152 -153 389 -187 586 -24 139 -24 471 0 610 34 198 99 400
190 592 26 56 26 92 -2 117 -22 20 -61 27 -88 16z"/>
<path d="M4350 3587 c-14 -7 -31 -25 -38 -40 -12 -25 -9 -35 29 -119 144 -321
193 -539 193 -868 0 -322 -45 -530 -181 -838 -50 -112 -53 -124 -41 -150 17
-36 60 -56 96 -45 51 17 163 267 222 497 51 196 64 311 64 536 0 225 -13 340
-64 536 -57 220 -169 476 -216 494 -32 12 -34 12 -64 -3z"/>
<path d="M641 1333 c-11 -10 -24 -33 -27 -50 -6 -30 -1 -38 67 -108 l73 -76
-217 -217 c-230 -231 -236 -239 -201 -292 25 -37 193 -208 238 -241 68 -51 68
-51 308 188 l217 217 76 -73 c70 -68 78 -73 108 -67 67 13 67 12 67 372 0 311
-1 325 -20 344 -19 19 -33 20 -344 20 -294 0 -326 -2 -345 -17z m549 -295 l0
-152 -27 26 c-37 33 -58 40 -91 27 -15 -6 -120 -103 -235 -217 l-207 -207 -57
58 -58 57 207 207 c114 115 211 220 217 235 13 33 6 54 -27 91 l-26 27 152 0
152 0 0 -152z"/>
<path d="M3790 1330 c-19 -19 -20 -33 -20 -344 0 -360 0 -359 67 -372 30 -6
38 -1 108 67 l76 73 217 -217 c240 -239 240 -239 308 -188 45 33 213 204 238
241 35 53 29 61 -201 292 l-217 217 73 76 c68 70 73 78 67 108 -13 67 -12 67
-372 67 -311 0 -325 -1 -344 -20z m418 -167 c-33 -37 -40 -58 -27 -91 6 -15
103 -120 217 -235 l207 -207 -58 -57 -57 -58 -207 207 c-115 114 -220 211
-235 217 -33 13 -54 6 -90 -27 l-28 -26 0 152 0 152 152 0 152 0 -26 -27z"/>
<path d="M1570 807 c-34 -17 -54 -60 -43 -95 17 -50 263 -161 496 -223 189
-49 309 -63 537 -63 228 0 348 14 536 63 179 47 440 153 484 196 18 19 18 78
0 100 -33 40 -56 38 -173 -14 -206 -91 -342 -133 -542 -168 -139 -24 -471 -24
-610 0 -200 35 -336 77 -541 168 -62 27 -114 49 -115 49 -2 0 -15 -6 -29 -13z"/>
</g>
</svg>
