<?xml version="1.0" standalone="no"?>
<svg version="1.0" xmlns="http://www.w3.org/2000/svg"
 viewBox="0 0 768.000000 768.000000"
 preserveAspectRatio="xMidYMid meet">

<g transform="translate(0.000000,768.000000) scale(0.100000,-0.100000)"
fill="#000000" stroke="none">
<path d="M3710 7208 c-195 -61 -320 -229 -320 -429 0 -72 16 -148 40 -191 6
-10 10 -23 9 -30 0 -7 -70 -69 -156 -138 -85 -69 -208 -168 -273 -220 -313
-254 -514 -417 -534 -432 -22 -17 -24 -16 -57 8 -19 15 -59 38 -89 52 -50 24
-67 26 -176 27 l-121 0 -77 -39 c-377 -192 -320 -732 89 -842 65 -18 145 -17
224 1 36 9 70 14 76 11 13 -5 921 -680 944 -701 11 -11 9 -25 -17 -87 -71
-173 -59 -367 33 -533 45 -81 93 -135 176 -196 l69 -52 0 -499 0 -500 -104 99
c-58 55 -122 108 -143 119 -60 28 -156 30 -228 4 -77 -29 -155 -105 -178 -175
-39 -112 -13 -187 115 -340 157 -188 261 -365 356 -608 68 -171 111 -245 193
-332 l69 -72 0 -298 0 -297 34 -34 34 -34 729 0 729 0 34 29 35 29 5 313 5
314 36 55 c46 72 84 162 110 263 29 113 36 326 26 832 -8 450 -11 473 -70 552
-65 84 -170 126 -270 106 -28 -6 -62 -14 -73 -18 -19 -6 -24 -1 -34 32 -27 81
-80 138 -164 177 -50 24 -157 24 -211 2 -21 -9 -39 -15 -40 -14 -1 2 -13 25
-26 51 -28 58 -85 112 -146 138 -54 23 -158 25 -208 5 l-35 -15 0 59 0 59 59
40 c234 159 328 475 219 739 -17 41 -27 77 -22 82 20 19 937 702 948 706 7 3
41 -2 77 -11 379 -89 687 283 523 632 -34 72 -140 180 -207 211 -143 67 -341
52 -454 -34 -17 -13 -38 -24 -45 -24 -12 0 -61 38 -402 315 -323 261 -493 399
-538 434 -49 37 -55 49 -38 79 43 77 53 231 21 323 -28 78 -46 110 -93 164
-116 132 -303 185 -468 133z m215 -137 c3 -5 19 -12 35 -16 45 -10 125 -88
155 -151 34 -71 36 -176 6 -244 -26 -60 -99 -134 -158 -162 -64 -30 -177 -30
-245 0 -58 26 -132 101 -159 161 -29 66 -26 177 7 246 29 62 110 140 154 150
16 4 32 11 35 16 4 5 42 9 85 9 43 0 81 -4 85 -9z m-332 -671 c25 -16 73 -40
108 -52 l64 -23 0 -244 0 -245 -55 -16 c-80 -24 -142 -63 -200 -127 -91 -99
-125 -197 -117 -332 7 -126 60 -233 158 -319 42 -37 124 -80 171 -89 18 -3 36
-11 40 -17 14 -20 9 -342 -4 -353 -7 -5 -39 -15 -71 -22 -75 -16 -182 -71
-241 -122 -36 -32 -51 -40 -65 -33 -38 18 -900 669 -901 680 0 6 15 31 33 55
69 95 91 161 90 274 -1 72 -13 128 -47 206 -5 12 5 26 36 50 24 18 45 36 48
39 3 3 64 53 135 110 108 87 288 233 499 403 21 18 87 71 145 119 58 48 111
87 118 87 7 1 32 -12 56 -29z m710 -92 c225 -182 451 -365 651 -527 136 -110
176 -147 170 -160 -33 -77 -46 -134 -46 -206 -1 -113 24 -185 99 -289 l33 -44
-451 -336 c-248 -186 -457 -340 -465 -343 -7 -3 -34 13 -60 36 -59 51 -166
106 -241 122 -32 7 -64 17 -70 22 -14 11 -19 333 -5 353 4 6 22 14 40 17 111
22 230 123 290 246 32 67 37 87 40 167 6 137 -30 235 -121 332 -61 63 -116 98
-195 121 l-57 17 0 245 0 244 64 23 c35 12 82 35 105 51 22 16 47 30 54 30 7
1 81 -54 165 -121z m-2028 -618 c82 -37 133 -94 166 -183 32 -86 23 -158 -28
-252 -18 -33 -76 -95 -89 -95 -4 0 -15 -6 -23 -13 -9 -8 -45 -21 -81 -31 -61
-16 -69 -16 -129 0 -104 26 -164 73 -214 168 -31 59 -31 192 0 256 25 53 70
101 122 134 48 31 61 33 154 35 58 1 89 -4 122 -19z m3417 -23 c31 -21 64 -50
74 -65 52 -78 57 -95 58 -192 1 -88 -1 -98 -28 -140 -59 -93 -108 -130 -208
-155 -61 -15 -70 -15 -124 1 -124 35 -181 87 -229 208 -48 122 25 290 156 359
50 26 60 28 149 25 91 -3 98 -5 152 -41z m-1788 17 c104 -27 156 -67 205 -158
28 -52 32 -68 32 -135 0 -50 -6 -88 -15 -107 -9 -16 -16 -34 -16 -39 0 -17
-72 -90 -120 -121 -42 -27 -51 -29 -150 -29 -98 0 -108 2 -149 28 -104 68
-151 150 -151 264 0 145 83 254 223 294 78 22 68 22 141 3z m43 -1263 c190
-49 330 -201 353 -383 9 -73 -3 -212 -20 -233 -4 -5 -11 -21 -15 -35 -9 -29
-71 -115 -109 -149 l-26 -24 0 54 c0 52 -18 127 -39 167 -7 13 -5 31 6 63 19
54 13 150 -12 199 -20 41 -94 120 -111 120 -7 0 -14 5 -16 12 -3 7 -38 13 -98
16 -106 5 -136 -5 -203 -67 -62 -57 -81 -104 -82 -192 0 -47 5 -86 14 -102 12
-23 12 -31 -1 -59 -27 -56 -38 -102 -38 -159 l-1 -54 -49 54 c-99 109 -139
237 -120 387 23 183 167 338 360 388 75 19 123 19 207 -3z m-48 -345 c36 -19
61 -57 61 -93 l0 -28 -120 0 -120 0 0 28 c0 80 101 133 179 93z m27 -291 c21
-16 35 -38 42 -67 7 -28 11 -300 11 -777 1 -824 -3 -781 71 -781 30 0 43 6 59
26 21 26 21 37 21 456 0 474 1 480 62 518 44 27 111 26 149 -1 60 -42 59 -37
59 -512 0 -424 0 -435 21 -461 16 -20 29 -26 59 -26 69 0 70 3 70 346 0 387 3
416 47 460 31 31 39 34 91 34 44 -1 63 -6 84 -23 55 -45 58 -65 58 -438 0
-305 2 -344 17 -361 23 -26 84 -24 109 3 17 19 19 43 24 278 3 173 9 263 17
277 32 55 129 75 190 39 58 -34 61 -53 69 -450 3 -198 8 -373 10 -390 2 -16
-1 -113 -7 -214 -13 -232 -32 -307 -124 -473 -9 -17 -47 -18 -711 -18 l-702 0
-55 59 c-69 76 -105 138 -157 276 -86 232 -218 459 -372 642 -116 138 -128
171 -85 234 42 63 124 86 192 53 18 -8 104 -88 191 -176 139 -141 161 -160
191 -161 21 -1 41 6 54 19 19 20 20 33 20 759 0 501 3 753 11 783 11 44 50 84
93 95 34 9 89 -4 121 -28z m1154 -2945 l0 -240 -650 0 -650 0 0 233 c0 129 3
237 7 240 3 4 296 7 650 7 l643 0 0 -240z"/>
</g>
</svg>
