<?xml version="1.0" standalone="no"?>
<svg version="1.0" xmlns="http://www.w3.org/2000/svg"
 viewBox="0 0 512.000000 512.000000"
 preserveAspectRatio="xMidYMid meet">

<g transform="translate(0.000000,512.000000) scale(0.100000,-0.100000)"
fill="#000000" stroke="none">
<path d="M1225 4954 c-168 -26 -282 -62 -418 -132 -317 -162 -546 -464 -623
-822 -26 -118 -26 -362 0 -480 102 -474 465 -836 936 -935 39 -8 85 -15 101
-15 16 0 29 -4 29 -10 0 -5 -15 -10 -32 -10 -48 -1 -193 -34 -268 -63 -395
-149 -671 -469 -767 -889 -23 -102 -23 -374 0 -476 56 -245 161 -438 331 -608
174 -174 386 -287 631 -335 103 -21 349 -18 455 5 375 81 682 323 845 668 51
109 92 242 101 333 7 67 24 90 24 33 0 -18 9 -71 19 -118 102 -459 465 -816
931 -916 106 -23 352 -26 455 -5 495 98 868 471 966 966 21 103 18 349 -5 455
-100 466 -457 829 -916 931 -47 10 -100 19 -117 19 -18 0 -33 5 -33 10 0 6 15
10 33 10 17 0 70 9 117 19 458 102 816 466 916 931 23 106 26 352 5 455 -96
487 -459 857 -941 961 -118 26 -362 26 -480 0 -467 -101 -829 -457 -931 -916
-10 -47 -19 -100 -19 -117 0 -18 -4 -33 -10 -33 -5 0 -10 13 -10 29 0 16 -7
62 -15 101 -98 464 -452 825 -915 931 -83 19 -327 33 -395 23z m355 -178 c211
-50 380 -145 523 -293 85 -87 124 -142 181 -252 206 -401 130 -884 -190 -1205
-321 -321 -804 -396 -1208 -188 -334 172 -542 495 -563 873 -25 461 273 892
717 1037 160 53 388 64 540 28z m2400 0 c211 -50 380 -145 523 -293 85 -87
124 -142 181 -252 206 -401 130 -884 -190 -1205 -321 -321 -804 -396 -1208
-188 -334 172 -542 495 -563 873 -25 461 273 892 717 1037 160 53 388 64 540
28z m-1410 -1158 c1 -49 35 -193 64 -271 148 -392 478 -676 886 -762 39 -8 85
-15 101 -15 16 0 29 -4 29 -10 0 -5 -15 -10 -32 -10 -49 -1 -193 -35 -271 -64
-333 -125 -588 -380 -713 -713 -29 -78 -63 -222 -64 -270 0 -18 -4 -33 -10
-33 -5 0 -10 15 -10 33 -1 48 -35 192 -64 270 -109 290 -319 524 -591 660
-111 56 -234 95 -342 110 -83 11 -111 27 -50 27 17 0 70 9 117 19 395 88 721
373 865 756 30 79 64 224 65 273 0 17 5 32 10 32 6 0 10 -15 10 -32z m-961
-1248 c583 -152 921 -749 744 -1315 -52 -168 -138 -308 -264 -432 -92 -91
-150 -133 -259 -187 -303 -153 -634 -154 -935 -3 -453 226 -678 751 -528 1232
117 375 424 646 816 721 105 20 319 12 426 -16z m2316 15 c329 -53 613 -261
760 -555 42 -86 72 -168 97 -270 17 -71 17 -316 0 -395 -91 -425 -402 -736
-827 -827 -79 -17 -324 -17 -395 0 -390 94 -664 337 -787 697 -164 480 64
1025 523 1254 198 98 413 131 629 96z"/>
<path d="M1149 4621 c-21 -17 -25 -30 -29 -102 -5 -82 -5 -83 -38 -96 -32 -13
-33 -12 -93 43 -85 78 -91 76 -251 -84 -161 -160 -163 -167 -84 -251 l57 -59
-15 -36 -15 -36 -76 0 c-67 0 -79 -3 -100 -25 -25 -24 -25 -26 -25 -215 0
-189 0 -191 25 -215 21 -22 33 -25 100 -25 l76 0 15 -36 15 -36 -55 -58 c-83
-86 -82 -87 81 -252 165 -166 172 -168 257 -88 57 54 62 56 101 38 23 -11 25
-16 25 -85 0 -65 3 -77 25 -98 24 -25 26 -25 215 -25 189 0 191 0 215 25 22
21 25 33 25 100 l0 76 36 15 36 15 58 -55 c86 -83 87 -82 252 81 166 165 168
172 88 257 -54 57 -56 62 -38 101 11 23 16 25 85 25 65 0 77 3 98 25 25 24 25
26 25 215 0 189 0 191 -25 215 -21 22 -33 25 -100 25 l-76 0 -15 36 -15 36 57
59 c79 84 77 91 -84 251 -160 161 -167 163 -251 84 l-59 -57 -36 15 -36 15 0
76 c0 67 -3 79 -25 100 -24 25 -26 25 -213 25 -172 0 -192 -2 -213 -19z m291
-198 c0 -85 13 -103 95 -133 39 -15 84 -34 102 -43 51 -27 76 -21 130 27 l50
45 53 -54 53 -54 -41 -45 c-57 -61 -59 -81 -24 -157 16 -35 35 -81 41 -101 17
-53 44 -68 118 -68 l63 0 0 -80 0 -80 -64 0 c-74 0 -110 -21 -121 -73 -4 -17
-20 -58 -36 -91 -40 -81 -38 -101 18 -158 l48 -48 -57 -57 -57 -57 -50 47
c-28 26 -60 47 -71 47 -11 0 -49 -13 -83 -29 -34 -15 -79 -34 -99 -40 -53 -17
-68 -44 -68 -118 l0 -63 -80 0 -80 0 0 64 c0 74 -21 110 -73 121 -17 4 -58 20
-91 36 -81 40 -101 38 -158 -18 l-48 -48 -57 57 -57 57 47 50 c26 28 47 60 47
71 0 11 -13 49 -29 83 -15 34 -34 79 -40 99 -17 53 -44 68 -118 68 l-63 0 0
80 0 80 65 0 c56 0 69 4 90 24 13 13 27 37 31 53 4 15 20 54 35 87 40 81 38
101 -18 158 l-48 48 57 57 57 57 50 -47 c28 -26 59 -47 71 -47 11 0 42 11 68
24 26 13 71 31 99 40 68 23 83 44 83 123 l0 63 80 0 80 0 0 -57z"/>
<path d="M1266 4150 c-63 -16 -153 -70 -197 -117 -22 -24 -55 -74 -72 -111
-29 -61 -32 -76 -32 -163 0 -90 2 -99 37 -171 45 -91 103 -147 196 -191 61
-29 76 -32 162 -32 86 0 101 3 162 32 93 44 151 100 196 191 35 72 37 81 37
172 0 91 -2 100 -37 172 -68 136 -188 217 -336 224 -42 2 -94 -1 -116 -6z
m168 -162 c86 -26 166 -136 166 -228 0 -92 -80 -202 -166 -228 -94 -28 -169
-8 -239 63 -102 101 -102 229 0 330 70 71 145 90 239 63z"/>
<path d="M3305 4455 c-25 -24 -25 -24 -25 -240 l0 -215 80 0 80 0 0 160 0 160
320 0 320 0 0 -280 0 -280 -175 0 c-173 0 -176 0 -200 -25 -25 -24 -25 -27
-25 -200 l0 -175 80 0 80 0 0 120 0 120 175 0 c173 0 176 0 200 25 l25 24 0
391 0 391 -25 24 -24 25 -431 0 -431 0 -24 -25z"/>
<path d="M3680 3120 l0 -80 80 0 80 0 0 80 0 80 -80 0 -80 0 0 -80z"/>
<path d="M1390 2154 c-36 -7 -103 -32 -150 -55 -325 -161 -447 -581 -259 -893
l41 -69 -171 -171 -171 -171 57 -58 58 -57 171 171 172 172 59 -37 c33 -20 93
-49 134 -64 65 -23 89 -26 194 -26 136 0 175 9 294 66 164 79 298 251 336 433
95 455 -310 857 -765 759z m231 -154 c91 -17 190 -72 255 -142 175 -190 176
-465 1 -654 -182 -197 -481 -205 -678 -17 -192 183 -198 479 -12 674 113 118
271 169 434 139z"/>
<path d="M4160 1440 l0 -400 -80 0 -80 0 0 320 0 320 -80 0 -80 0 0 -320 0
-320 -80 0 -80 0 0 240 0 240 -80 0 -80 0 0 -240 0 -240 -80 0 -80 0 0 160 0
160 -80 0 -80 0 0 -160 0 -160 -80 0 -80 0 0 -80 0 -80 720 0 720 0 0 80 0 80
-80 0 -80 0 0 400 0 400 -80 0 -80 0 0 -400z"/>
</g>
</svg>
